<?xml version="1.0" encoding="utf-8"?>
<!-- Generator: Adobe Illustrator 15.0.2, SVG Export Plug-In . SVG Version: 6.00 Build 0)  -->
<!DOCTYPE svg PUBLIC "-//W3C//DTD SVG 1.1//EN" "http://www.w3.org/Graphics/SVG/1.1/DTD/svg11.dtd">
<svg version="1.1" xmlns="http://www.w3.org/2000/svg" xmlns:xlink="http://www.w3.org/1999/xlink" x="0px" y="0px" width="100px"
	 height="100px" viewBox="0 0 100 100" enable-background="new 0 0 100 100" xml:space="preserve">
<g id="Layer_2" display="none">
	<rect x="-0.001" y="0.063" display="inline" fill="#00A651" width="100.001" height="99.863"/>
</g>
<g id="Layer_1">
	<g>
		<g>
			<g>
				<path fill="#B3CDCC" d="M30.943,62.126c-8.344-7.922-3.056-16.228-3.056-16.228s-0.005-0.146-0.246-0.111
					C7.216,48.914,0.044,33.545,0.044,33.545v36.589c0,0-0.043,0.064,0.401-0.242c10.816-7.41,30.527-7.611,30.527-7.611
					S31.027,62.207,30.943,62.126z"/>
			</g>
			<g>
				<path fill="#B3CDCC" d="M36.44,66.818c-0.237-0.16-0.567-0.195-0.567-0.195l-0.04-0.01c-2.728-0.322-6.798-0.158-11.277,0.553
					c-4.36,0.695-8.194,1.76-10.694,2.879l-0.163,0.066C7.315,72.56,2.835,78.304,2.835,85c0,6.424,4.135,12.154,10.115,14.758
					c0,0,0.545,0.221,0.622,0.225c0.076,0,32.21,0,32.21,0s0.245-0.158,0.374-0.268C61.485,86.146,49.574,75.677,36.44,66.818z"/>
			</g>
			<g>
				<path fill="#B3CDCC" d="M92.062,0.093l-0.028,0.001H48.612l-0.224-0.019c5.913,4.933,9.704,11.61,9.704,19.327
					c0,5.501-2.086,10.186-4.537,13.864l0.035-0.015l-0.128,0.109l-0.471,0.492c0,0-1.762,1.896-3.686,3.738
					c-1.922,1.842-4.72,4.12-4.72,4.12c-2.412,1.812-3.88,4.212-3.88,6.843c0,2.641,1.688,5.172,4.114,6.985
					c0,0,4.028,2.945,6.729,5.207c2.7,2.264,5.892,5.363,5.892,5.363c3.657,3.439,6.02,8.887,6.02,15.016
					c0,5.279-1.75,10.047-4.57,13.467l-4.322,5.418h37.441l0.047-0.004c2.312,0,7.942-0.004,7.942-0.004s-0.006-5.863-0.006-7.934
					v-0.043V39.38L100,39.266V8.161V8.027c0-2.063,0-7.943,0-7.943S94.381,0.093,92.062,0.093z"/>
			</g>
			<g>
				<path fill="#B3CDCC" d="M33.333,41.821c12.738-3.974,12.603-14.25,9.194-26.606C40.758,8.79,36.136,2.75,31.567,0.161
					l-0.033-0.023h-13.2l-0.062,0.028c-7.852,4.091-9.051,14.173-6.474,23.522C15.206,36.043,24.201,44.669,33.333,41.821z"/>
			</g>
			<g>
				<path fill="#B3CDCC" d="M9.674,0.138H9.589H7.979L7.94,0.146c-2.284,0-7.941-0.009-7.941-0.009s0.003,5.847,0.003,7.946
					l0.001,0.028l-0.004,0.04v2.581l0.004,0.186C2.378,6.143,5.831,2.368,9.674,0.138z"/>
			</g>
		</g>
	</g>
</g>
</svg>
