<?xml version="1.0" encoding="utf-8"?>
<!-- Generator: Adobe Illustrator 15.0.2, SVG Export Plug-In . SVG Version: 6.00 Build 0)  -->
<!DOCTYPE svg PUBLIC "-//W3C//DTD SVG 1.1//EN" "http://www.w3.org/Graphics/SVG/1.1/DTD/svg11.dtd">
<svg version="1.1" id="Page_1" xmlns="http://www.w3.org/2000/svg" xmlns:xlink="http://www.w3.org/1999/xlink" x="0px" y="0px"
	 width="100px" height="100px" viewBox="0 0 100 100" enable-background="new 0 0 100 100" xml:space="preserve">
<g>
	<path fill="#B4CDCD" d="M0,0v40.6v0.244V100h100V38.854V38.61V0H0z M91.808,56.466c-0.057,0.184-0.106,0.332-0.149,0.435
		l-0.003-0.001c-0.343,0.863-0.928,1.859-1.594,2.769c-0.618,0.841-1.349,1.664-2.069,2.293c-0.073,0.073-0.155,0.148-0.243,0.226
		c-0.794,0.689-1.746,1.015-2.633,1.05c-1.046,0.041-2.064-0.328-2.776-0.997c-0.075-0.07-0.156-0.155-0.244-0.257l-0.282-0.379
		l-1.348-2.236l-0.001,2.631l-0.032,0.478c-0.018,0.096-0.045,0.212-0.083,0.348c-0.264,0.937-0.918,1.757-1.83,2.257
		c-0.764,0.417-1.712,0.614-2.73,0.437v-0.002c-0.098-0.017-0.2-0.038-0.304-0.064c-0.925-0.172-2.082-0.529-3.139-0.952
		c-0.694-0.277-1.376-0.598-1.96-0.931h-2.629c-0.229,0.175-0.474,0.316-0.737,0.426c-0.383,0.159-0.785,0.239-1.2,0.239
		c-0.42,0-0.822-0.082-1.209-0.246c-0.254-0.107-0.49-0.248-0.709-0.419h-0.724c-1.341,1.39-3.372,2.323-6.438,2.226
		c-0.068-0.002-0.138-0.006-0.206-0.011v0.497c0,2.104-1.249,3.446-2.848,4.029c-0.54,0.195-1.103,0.295-1.647,0.295
		c-0.544,0-1.107-0.1-1.646-0.295c-1.6-0.583-2.849-1.926-2.849-4.029V64.53c-0.47,0.466-1.052,0.813-1.688,1.044
		c-0.545,0.196-1.107,0.294-1.644,0.294c-0.537,0-1.099-0.098-1.645-0.294c-1.238-0.447-2.269-1.343-2.68-2.689
		c-0.766,0.903-1.746,1.646-2.974,2.176c-1.215,0.523-2.679,0.824-4.431,0.842c-4.02,0.039-6.309-1.834-7.61-4.22
		c-0.311-0.568-0.552-1.159-0.741-1.751l-1.521,4.915c-0.539,1.74-1.405,3.02-2.683,3.902c-1.246,0.859-2.741,1.236-4.569,1.191
		c-0.671-0.017-1.246-0.103-1.732-0.241c-1.188-0.339-2.02-0.981-2.576-1.756c-0.603-0.837-0.828-1.77-0.806-2.64
		c0.01-0.419,0.068-0.805,0.165-1.142c0.321-1.128,0.961-1.923,1.774-2.467c0.379-0.254,0.781-0.438,1.191-0.563l-4.714-9.658
		c-0.073-0.151-0.144-0.316-0.209-0.495c-0.446-1.216-0.374-2.41,0.047-3.431c0.434-1.053,1.232-1.893,2.219-2.374
		c0.125-0.061,0.268-0.121,0.428-0.18c1.011-0.371,2.067-0.458,3.067-0.162c1.082,0.321,1.977,1.012,2.562,2.159l1.123,2.209
		l0.512-1.691c0.04-0.127,0.086-0.25,0.14-0.366c0.031-0.076,0.062-0.15,0.097-0.223c0.558-1.188,1.511-1.912,2.6-2.25
		c0.926-0.288,1.938-0.269,2.824,0c0.118,0.036,0.232,0.079,0.343,0.128c0.105,0.041,0.21,0.085,0.311,0.133
		c0.748,0.35,1.445,0.907,1.935,1.638c1.457-1.276,3.391-1.992,5.878-2.083c0.209-0.007,0.43-0.009,0.661-0.004
		c2.808,0.056,4.873,1.107,6.297,2.891c0.07,0.087,0.137,0.175,0.202,0.266v-3.783c0-2.106,1.26-3.448,2.871-4.029
		c0.546-0.196,1.107-0.294,1.645-0.294c0.536,0,1.099,0.098,1.644,0.294c1.612,0.581,2.872,1.923,2.872,4.029v1.736
		c0.387-0.386,0.848-0.692,1.351-0.917c0.549-0.245,1.148-0.377,1.745-0.397c0.582-0.02,1.178,0.071,1.736,0.272
		c0.258,0.092,0.506,0.206,0.741,0.338c0.887-0.345,1.835-0.526,2.787-0.55c1.337-0.034,2.688,0.244,3.894,0.817
		c1.055,0.501,1.881,1.147,2.528,1.887c0.018-0.083,0.034-0.163,0.051-0.241c0.015-0.074,0.031-0.157,0.053-0.251
		c0.241-1.055,0.833-1.875,1.552-2.418l-0.004-0.006c0.817-0.617,1.832-0.885,2.764-0.771v0.002
		c0.102,0.013,0.223,0.035,0.358,0.066l0.413,0.13l2.676,1.078c-1.766-2.767-3.508-5.501-5.045-8.108l-0.043-0.076
		c-0.068-0.125-0.13-0.252-0.184-0.383c-0.484-1.16-0.37-2.291,0.229-3.322c0.418-0.716,1.077-1.325,1.91-1.782
		c0.228-0.125,0.442-0.229,0.64-0.312l0.12-0.043c1.049-0.381,1.995-0.688,2.917-0.936c0.94-0.254,1.896-0.46,2.95-0.637
		l0.347-0.033c1.428-0.056,2.475,0.33,3.239,0.984c0.921,0.787,1.283,1.781,1.318,2.834c0.28,3.125,0.47,6.224,0.639,9.239
		l1.836-2.519l0.315-0.368c0.06-0.059,0.15-0.134,0.266-0.226v-0.01c0.761-0.599,1.767-0.876,2.792-0.743
		c0.866,0.112,1.754,0.514,2.479,1.263c0.088,0.091,0.165,0.177,0.233,0.257c0.637,0.679,1.348,1.632,1.942,2.581
		c0.64,1.017,1.188,2.104,1.437,2.958H91.71c0.049,0.158,0.081,0.277,0.101,0.363v0.011c0.225,1.066,0.028,2.027-0.436,2.814
		c-0.49,0.831-1.254,1.41-2.133,1.689c-0.065,0.021-0.156,0.045-0.273,0.07v0.002l-2.011,0.51l2.387,0.815v-0.002
		c0.094,0.028,0.211,0.072,0.348,0.128c0.939,0.392,1.662,1.137,2.039,2.098C92.045,54.55,92.103,55.494,91.808,56.466z"/>
	<path fill="#B4CDCD" d="M75.25,53.919l-4.37,5.197c-0.399,0.442-0.425,1.144,0.264,1.65c1.003,0.772,3.459,1.725,4.942,1.976
		c0.85,0.24,1.52-0.209,1.613-0.744l0.003-6.938C77.866,53.235,76.307,52.669,75.25,53.919z"/>
	<path fill="#B4CDCD" d="M75.323,31.769c-1.896,0.319-3.481,0.753-5.378,1.443c-1.08,0.45-1.629,1.177-1.231,1.904
		c2.136,3.621,4.41,7.104,6.685,10.69c0.883,1.34,2.459,0.877,2.407-0.692c-0.219-3.979-0.438-8.166-0.796-12.145
		C77.003,32.279,76.628,31.716,75.323,31.769z"/>
	<path fill="#B4CDCD" d="M74.064,48.704l-6.398-2.578c-0.529-0.121-1.271,0.324-1.38,1.199c-0.342,1.465-0.413,4.099-0.09,5.322
		c0.202,0.829,0.927,1.079,1.489,0.882l6.414-1.984C75.557,51.123,75.556,49.151,74.064,48.704z"/>
	<path fill="#B4CDCD" d="M88.542,54.184l-6.425-2.196c-1.426-0.519-2.451,1.003-1.511,2.243l3.582,5.942
		c0.355,0.409,1.267,0.446,1.871-0.196c1.174-0.979,2.544-2.856,3.038-4.139C89.427,55.05,89.112,54.357,88.542,54.184z"/>
	<path fill="#B4CDCD" d="M81.738,49.175l6.558-1.662c0.584-0.124,1.017-0.676,0.759-1.49c-0.355-1.214-1.78-3.431-2.83-4.507
		c-0.545-0.693-1.353-0.726-1.743-0.348l-4.087,5.605C79.351,47.928,80.272,49.567,81.738,49.175z"/>
	<path fill="#B4CDCD" d="M42.474,43.857v17.688c0,2.063,3.479,2.062,3.479,0V43.857C45.952,41.795,42.474,41.794,42.474,43.857z"/>
	<path fill="#B4CDCD" d="M23.554,47.438c-0.878-0.412-2.147-0.239-2.485,0.874l-2.513,8.299l-4.253-8.361
		c-0.44-0.867-1.299-0.983-2.201-0.652c-0.938,0.344-1.532,1.458-0.943,2.663l5.136,10.524c0.231,0.475,0.602,1.146,0.609,1.812
		c-0.35,1.092-0.57,1.075-1.963,1.076c-0.786,0.001-1.588,0.287-1.861,1.248c-0.249,0.874,0.1,2.199,2.346,2.253
		c2.461,0.061,3.843-0.887,4.541-3.141l4.561-14.738C24.794,48.432,24.237,47.758,23.554,47.438z"/>
	<path fill="#B4CDCD" d="M59.801,47.663c-1.626-0.772-3.629-0.759-5.167,0.131c-0.354,0.205-0.707,0.434-1.004,0.666
		c-0.138-1.93-3.308-1.887-3.308,0.132v17.688c0,2.063,3.436,2.062,3.436,0V63.24c0-0.596,0.088-1.039,0.195-1.447
		c0.699,0.637,1.828,1.2,2.874,1.234c6.604,0.212,6.171-7.012,6.135-8.587C62.962,52.158,62.683,49.032,59.801,47.663z
		 M60.131,58.883c-0.86,1.1-3.014,1.09-3.86,0.027c-1.194-1.501-1.041-6.111-0.031-7.72c0.75-1.195,3.305-1.261,4.001,0
		C61.148,52.837,61.302,57.388,60.131,58.883z"/>
	<path fill="#B4CDCD" d="M32.635,47.254c-4.673,0.17-6.439,3.189-6.375,8.297c0.032,2.655,0.684,7.639,6.203,7.585
		c2.811-0.027,4.581-0.972,5.595-2.409c0.188-0.395,0.312-0.748,0.304-1.157c-0.018-0.942-0.866-1.861-1.854-1.531
		c-0.449,0.149-0.878,0.598-1.69,1.261c-1.537,0.893-3.292,0.762-4.138-0.302c-0.314-0.394-0.552-0.975-0.675-1.664
		c-0.088-0.585,0.098-0.798,0.727-0.822l7.254-0.011c0.902-0.144,0.786-1.576,0.778-1.896
		C38.852,50.163,37.099,47.089,32.635,47.254z M34.782,53.768h-5.159c-0.466,0.018-0.553,0.006-0.59-0.367
		c0.166-1.695,1.207-2.944,3.099-2.989c2.403-0.058,2.898,1.603,3.012,3.218C35.125,53.759,35.04,53.768,34.782,53.768z"/>
	<path fill="#B4CDCD" d="M66.311,60.799c0-0.097-0.04-0.171-0.119-0.221c-0.078-0.05-0.193-0.074-0.345-0.074h-0.422v1.092h0.235
		V61.14h0.17l0.218,0.456h0.263l-0.245-0.495c0.079-0.017,0.139-0.051,0.181-0.104C66.288,60.945,66.311,60.88,66.311,60.799z
		 M66.009,60.954c-0.042,0.027-0.106,0.04-0.194,0.04H65.66V60.65h0.145c0.092,0,0.158,0.015,0.2,0.043
		c0.043,0.029,0.063,0.073,0.063,0.134C66.068,60.885,66.049,60.928,66.009,60.954z"/>
	<path fill="#B4CDCD" d="M66.521,60.386c-0.093-0.096-0.2-0.169-0.319-0.218c-0.118-0.049-0.245-0.074-0.38-0.074
		c-0.132,0-0.256,0.024-0.37,0.07c-0.114,0.047-0.218,0.115-0.309,0.207c-0.095,0.095-0.168,0.201-0.219,0.322
		s-0.075,0.245-0.075,0.375c0,0.128,0.024,0.25,0.072,0.367c0.049,0.116,0.119,0.222,0.21,0.314
		c0.094,0.094,0.201,0.168,0.319,0.218s0.242,0.075,0.371,0.075c0.128,0,0.252-0.024,0.371-0.073s0.225-0.12,0.32-0.212
		c0.093-0.09,0.164-0.194,0.212-0.312c0.049-0.117,0.073-0.243,0.073-0.377c0-0.132-0.023-0.255-0.071-0.372
		C66.681,60.58,66.612,60.476,66.521,60.386z M66.59,61.394c-0.043,0.1-0.102,0.187-0.181,0.261
		c-0.081,0.08-0.172,0.141-0.273,0.182c-0.103,0.041-0.211,0.062-0.325,0.062c-0.104,0-0.207-0.021-0.307-0.063
		c-0.1-0.044-0.189-0.104-0.269-0.185c-0.076-0.078-0.137-0.168-0.179-0.268c-0.04-0.099-0.061-0.203-0.061-0.312
		s0.021-0.215,0.065-0.316c0.043-0.103,0.104-0.194,0.186-0.277c0.078-0.077,0.166-0.136,0.263-0.175
		c0.097-0.041,0.201-0.061,0.315-0.061c0.112,0,0.219,0.021,0.319,0.062c0.099,0.043,0.191,0.104,0.272,0.185
		c0.077,0.079,0.137,0.169,0.176,0.27c0.04,0.101,0.061,0.209,0.061,0.325C66.653,61.191,66.632,61.295,66.59,61.394z"/>
</g>

</svg>
